ISO-10303-21;
HEADER;
/* Generated by software containing ST-Developer
 * from STEP Tools, Inc. (www.steptools.com) 
 */

FILE_DESCRIPTION(
/* description */ (''),
/* implementation_level */ '2;1');

FILE_NAME(
/* name */ 'camera_holder.step',
/* time_stamp */ '2026-05-04T11:39:40+02:00',
/* author */ ('owozn'),
/* organization */ (''),
/* preprocessor_version */ 'ST-DEVELOPER v20',
/* originating_system */ 'Autodesk Inventor 2024',
/* authorisation */ '');

FILE_SCHEMA (('AUTOMOTIVE_DESIGN { 1 0 10303 214 3 1 1 }'));
ENDSEC;

DATA;
#10=MECHANICAL_DESIGN_GEOMETRIC_PRESENTATION_REPRESENTATION('',(#38,#39,
#40,#41,#42,#43,#44,#45,#46,#47,#48,#49,#50,#51,#52,#53,#54,#55,#56,#57,
#58,#59,#60,#61),#993);
#11=GEOMETRICALLY_BOUNDED_WIREFRAME_SHAPE_REPRESENTATION('',(#12),#992);
#12=GEOMETRIC_CURVE_SET('Sketch3',(#20,#21,#16,#22,#17,#18,#270,#23,#24,
#19,#25,#26,#27,#28,#29,#30,#31,#32,#33,#34,#35,#36,#37,#979,#980,#981,
#982,#983,#984,#985,#986,#987,#988,#989));
#13=SHAPE_REPRESENTATION_RELATIONSHIP('SRR','None',#1000,#15);
#14=SHAPE_REPRESENTATION_RELATIONSHIP('SRR','None',#1000,#11);
#15=ADVANCED_BREP_SHAPE_REPRESENTATION('',(#62),#992);
#16=TRIMMED_CURVE('',#267,(#935,PARAMETER_VALUE(0.)),(#936,
PARAMETER_VALUE(1.5707963267949)),.T.,.PARAMETER.);
#17=TRIMMED_CURVE('',#268,(#940,PARAMETER_VALUE(3.14159265358979)),(#941,
PARAMETER_VALUE(4.71238898038469)),.T.,.PARAMETER.);
#18=TRIMMED_CURVE('',#269,(#943,PARAMETER_VALUE(1.5707963267949)),(#944,
PARAMETER_VALUE(3.14159265358979)),.T.,.PARAMETER.);
#19=TRIMMED_CURVE('',#271,(#951,PARAMETER_VALUE(4.71238898038469)),(#952,
PARAMETER_VALUE(6.28318530717959)),.T.,.PARAMETER.);
#20=POLYLINE('',(#930,#931));
#21=POLYLINE('',(#932,#933));
#22=POLYLINE('',(#937,#938));
#23=POLYLINE('',(#946,#947));
#24=POLYLINE('',(#948,#949));
#25=POLYLINE('',(#953,#954));
#26=POLYLINE('',(#955,#956));
#27=POLYLINE('',(#957,#958));
#28=POLYLINE('',(#959,#960));
#29=POLYLINE('',(#961,#962));
#30=POLYLINE('',(#963,#964));
#31=POLYLINE('',(#965,#966));
#32=POLYLINE('',(#967,#968));
#33=POLYLINE('',(#969,#970));
#34=POLYLINE('',(#971,#972));
#35=POLYLINE('',(#973,#974));
#36=POLYLINE('',(#975,#976));
#37=POLYLINE('',(#977,#978));
#38=STYLED_ITEM('',(#1009),#62);
#39=STYLED_ITEM('',(#1011),#20);
#40=STYLED_ITEM('',(#1011),#21);
#41=STYLED_ITEM('',(#1010),#16);
#42=STYLED_ITEM('',(#1010),#22);
#43=STYLED_ITEM('',(#1010),#17);
#44=STYLED_ITEM('',(#1010),#18);
#45=STYLED_ITEM('',(#1010),#270);
#46=STYLED_ITEM('',(#1010),#23);
#47=STYLED_ITEM('',(#1010),#24);
#48=STYLED_ITEM('',(#1010),#19);
#49=STYLED_ITEM('',(#1010),#25);
#50=STYLED_ITEM('',(#1010),#26);
#51=STYLED_ITEM('',(#1010),#27);
#52=STYLED_ITEM('',(#1010),#28);
#53=STYLED_ITEM('',(#1010),#29);
#54=STYLED_ITEM('',(#1010),#30);
#55=STYLED_ITEM('',(#1010),#31);
#56=STYLED_ITEM('',(#1010),#32);
#57=STYLED_ITEM('',(#1010),#33);
#58=STYLED_ITEM('',(#1010),#34);
#59=STYLED_ITEM('',(#1010),#35);
#60=STYLED_ITEM('',(#1010),#36);
#61=STYLED_ITEM('',(#1010),#37);
#62=MANIFOLD_SOLID_BREP('Solid2',#561);
#63=FACE_BOUND('',#123,.T.);
#64=FACE_BOUND('',#124,.T.);
#65=FACE_BOUND('',#126,.T.);
#66=FACE_BOUND('',#127,.T.);
#67=FACE_BOUND('',#129,.T.);
#68=FACE_BOUND('',#130,.T.);
#69=FACE_BOUND('',#145,.T.);
#70=FACE_BOUND('',#146,.T.);
#71=FACE_BOUND('',#147,.T.);
#72=FACE_BOUND('',#148,.T.);
#73=FACE_BOUND('',#149,.T.);
#74=FACE_BOUND('',#150,.T.);
#75=PLANE('',#587);
#76=PLANE('',#591);
#77=PLANE('',#604);
#78=PLANE('',#605);
#79=PLANE('',#606);
#80=PLANE('',#616);
#81=PLANE('',#619);
#82=PLANE('',#622);
#83=PLANE('',#625);
#84=PLANE('',#626);
#85=PLANE('',#627);
#86=PLANE('',#628);
#87=PLANE('',#629);
#88=PLANE('',#630);
#89=FACE_OUTER_BOUND('',#114,.T.);
#90=FACE_OUTER_BOUND('',#115,.T.);
#91=FACE_OUTER_BOUND('',#116,.T.);
#92=FACE_OUTER_BOUND('',#117,.T.);
#93=FACE_OUTER_BOUND('',#118,.T.);
#94=FACE_OUTER_BOUND('',#119,.T.);
#95=FACE_OUTER_BOUND('',#120,.T.);
#96=FACE_OUTER_BOUND('',#121,.T.);
#97=FACE_OUTER_BOUND('',#122,.T.);
#98=FACE_OUTER_BOUND('',#125,.T.);
#99=FACE_OUTER_BOUND('',#128,.T.);
#100=FACE_OUTER_BOUND('',#131,.T.);
#101=FACE_OUTER_BOUND('',#132,.T.);
#102=FACE_OUTER_BOUND('',#133,.T.);
#103=FACE_OUTER_BOUND('',#134,.T.);
#104=FACE_OUTER_BOUND('',#135,.T.);
#105=FACE_OUTER_BOUND('',#136,.T.);
#106=FACE_OUTER_BOUND('',#137,.T.);
#107=FACE_OUTER_BOUND('',#138,.T.);
#108=FACE_OUTER_BOUND('',#139,.T.);
#109=FACE_OUTER_BOUND('',#140,.T.);
#110=FACE_OUTER_BOUND('',#141,.T.);
#111=FACE_OUTER_BOUND('',#142,.T.);
#112=FACE_OUTER_BOUND('',#143,.T.);
#113=FACE_OUTER_BOUND('',#144,.T.);
#114=EDGE_LOOP('',(#387,#388,#389,#390));
#115=EDGE_LOOP('',(#391,#392,#393,#394));
#116=EDGE_LOOP('',(#395,#396,#397,#398));
#117=EDGE_LOOP('',(#399,#400,#401,#402));
#118=EDGE_LOOP('',(#403,#404,#405,#406));
#119=EDGE_LOOP('',(#407,#408,#409,#410));
#120=EDGE_LOOP('',(#411,#412,#413,#414));
#121=EDGE_LOOP('',(#415,#416,#417,#418));
#122=EDGE_LOOP('',(#419,#420,#421,#422));
#123=EDGE_LOOP('',(#423));
#124=EDGE_LOOP('',(#424));
#125=EDGE_LOOP('',(#425,#426,#427,#428));
#126=EDGE_LOOP('',(#429));
#127=EDGE_LOOP('',(#430));
#128=EDGE_LOOP('',(#431,#432,#433,#434));
#129=EDGE_LOOP('',(#435));
#130=EDGE_LOOP('',(#436,#437,#438,#439,#440,#441,#442,#443));
#131=EDGE_LOOP('',(#444,#445,#446,#447));
#132=EDGE_LOOP('',(#448,#449,#450,#451));
#133=EDGE_LOOP('',(#452,#453,#454,#455));
#134=EDGE_LOOP('',(#456,#457,#458,#459));
#135=EDGE_LOOP('',(#460,#461,#462,#463));
#136=EDGE_LOOP('',(#464,#465,#466,#467));
#137=EDGE_LOOP('',(#468,#469,#470,#471));
#138=EDGE_LOOP('',(#472,#473,#474,#475));
#139=EDGE_LOOP('',(#476,#477,#478,#479));
#140=EDGE_LOOP('',(#480,#481,#482,#483));
#141=EDGE_LOOP('',(#484,#485,#486,#487,#488,#489,#490,#491,#492,#493));
#142=EDGE_LOOP('',(#494,#495,#496,#497));
#143=EDGE_LOOP('',(#498,#499,#500,#501,#502,#503,#504,#505,#506,#507));
#144=EDGE_LOOP('',(#508,#509,#510,#511));
#145=EDGE_LOOP('',(#512));
#146=EDGE_LOOP('',(#513));
#147=EDGE_LOOP('',(#514));
#148=EDGE_LOOP('',(#515));
#149=EDGE_LOOP('',(#516,#517,#518,#519,#520,#521,#522,#523));
#150=EDGE_LOOP('',(#524));
#151=LINE('',#795,#198);
#152=LINE('',#798,#199);
#153=LINE('',#801,#200);
#154=LINE('',#803,#201);
#155=LINE('',#804,#202);
#156=LINE('',#810,#203);
#157=LINE('',#813,#204);
#158=LINE('',#816,#205);
#159=LINE('',#818,#206);
#160=LINE('',#819,#207);
#161=LINE('',#824,#208);
#162=LINE('',#830,#209);
#163=LINE('',#836,#210);
#164=LINE('',#842,#211);
#165=LINE('',#846,#212);
#166=LINE('',#848,#213);
#167=LINE('',#849,#214);
#168=LINE('',#852,#215);
#169=LINE('',#854,#216);
#170=LINE('',#855,#217);
#171=LINE('',#857,#218);
#172=LINE('',#858,#219);
#173=LINE('',#863,#220);
#174=LINE('',#867,#221);
#175=LINE('',#871,#222);
#176=LINE('',#875,#223);
#177=LINE('',#880,#224);
#178=LINE('',#883,#225);
#179=LINE('',#886,#226);
#180=LINE('',#889,#227);
#181=LINE('',#890,#228);
#182=LINE('',#894,#229);
#183=LINE('',#897,#230);
#184=LINE('',#898,#231);
#185=LINE('',#902,#232);
#186=LINE('',#905,#233);
#187=LINE('',#906,#234);
#188=LINE('',#910,#235);
#189=LINE('',#912,#236);
#190=LINE('',#915,#237);
#191=LINE('',#917,#238);
#192=LINE('',#918,#239);
#193=LINE('',#921,#240);
#194=LINE('',#922,#241);
#195=LINE('',#925,#242);
#196=LINE('',#926,#243);
#197=LINE('',#928,#244);
#198=VECTOR('',#642,10.);
#199=VECTOR('',#645,10.);
#200=VECTOR('',#648,10.);
#201=VECTOR('',#649,10.);
#202=VECTOR('',#650,10.);
#203=VECTOR('',#655,10.);
#204=VECTOR('',#658,10.);
#205=VECTOR('',#661,10.);
#206=VECTOR('',#662,10.);
#207=VECTOR('',#663,10.);
#208=VECTOR('',#668,2.5);
#209=VECTOR('',#675,2.5);
#210=VECTOR('',#682,2.5);
#211=VECTOR('',#689,2.5);
#212=VECTOR('',#694,10.);
#213=VECTOR('',#695,10.);
#214=VECTOR('',#696,10.);
#215=VECTOR('',#699,10.);
#216=VECTOR('',#700,10.);
#217=VECTOR('',#701,10.);
#218=VECTOR('',#704,10.);
#219=VECTOR('',#705,10.);
#220=VECTOR('',#708,10.);
#221=VECTOR('',#711,10.);
#222=VECTOR('',#714,10.);
#223=VECTOR('',#717,10.);
#224=VECTOR('',#724,2.5);
#225=VECTOR('',#727,10.);
#226=VECTOR('',#730,10.);
#227=VECTOR('',#733,10.);
#228=VECTOR('',#734,10.);
#229=VECTOR('',#739,10.);
#230=VECTOR('',#742,10.);
#231=VECTOR('',#743,10.);
#232=VECTOR('',#748,10.);
#233=VECTOR('',#751,10.);
#234=VECTOR('',#752,10.);
#235=VECTOR('',#757,10.);
#236=VECTOR('',#760,10.);
#237=VECTOR('',#763,10.);
#238=VECTOR('',#764,10.);
#239=VECTOR('',#765,10.);
#240=VECTOR('',#768,10.);
#241=VECTOR('',#769,10.);
#242=VECTOR('',#772,10.);
#243=VECTOR('',#773,10.);
#244=VECTOR('',#776,10.);
#245=CIRCLE('',#585,4.);
#246=CIRCLE('',#586,4.);
#247=CIRCLE('',#589,4.);
#248=CIRCLE('',#590,4.);
#249=CIRCLE('',#593,2.5);
#250=CIRCLE('',#594,2.5);
#251=CIRCLE('',#596,2.5);
#252=CIRCLE('',#597,2.5);
#253=CIRCLE('',#599,2.5);
#254=CIRCLE('',#600,2.5);
#255=CIRCLE('',#602,2.5);
#256=CIRCLE('',#603,2.5);
#257=CIRCLE('',#607,2.5);
#258=CIRCLE('',#608,2.00000000000001);
#259=CIRCLE('',#609,2.00000000000001);
#260=CIRCLE('',#610,2.00000000000001);
#261=CIRCLE('',#611,2.00000000000001);
#262=CIRCLE('',#613,2.5);
#263=CIRCLE('',#615,2.00000000000001);
#264=CIRCLE('',#618,2.00000000000001);
#265=CIRCLE('',#621,2.00000000000001);
#266=CIRCLE('',#624,2.00000000000001);
#267=CIRCLE('',#631,2.00000000000001);
#268=CIRCLE('',#632,2.00000000000001);
#269=CIRCLE('',#633,2.00000000000001);
#270=CIRCLE('',#634,2.5);
#271=CIRCLE('',#635,2.00000000000001);
#272=VERTEX_POINT('',#791);
#273=VERTEX_POINT('',#792);
#274=VERTEX_POINT('',#794);
#275=VERTEX_POINT('',#796);
#276=VERTEX_POINT('',#800);
#277=VERTEX_POINT('',#802);
#278=VERTEX_POINT('',#806);
#279=VERTEX_POINT('',#807);
#280=VERTEX_POINT('',#809);
#281=VERTEX_POINT('',#811);
#282=VERTEX_POINT('',#815);
#283=VERTEX_POINT('',#817);
#284=VERTEX_POINT('',#821);
#285=VERTEX_POINT('',#823);
#286=VERTEX_POINT('',#827);
#287=VERTEX_POINT('',#829);
#288=VERTEX_POINT('',#833);
#289=VERTEX_POINT('',#835);
#290=VERTEX_POINT('',#839);
#291=VERTEX_POINT('',#841);
#292=VERTEX_POINT('',#845);
#293=VERTEX_POINT('',#847);
#294=VERTEX_POINT('',#851);
#295=VERTEX_POINT('',#853);
#296=VERTEX_POINT('',#859);
#297=VERTEX_POINT('',#861);
#298=VERTEX_POINT('',#862);
#299=VERTEX_POINT('',#864);
#300=VERTEX_POINT('',#866);
#301=VERTEX_POINT('',#868);
#302=VERTEX_POINT('',#870);
#303=VERTEX_POINT('',#872);
#304=VERTEX_POINT('',#874);
#305=VERTEX_POINT('',#878);
#306=VERTEX_POINT('',#882);
#307=VERTEX_POINT('',#884);
#308=VERTEX_POINT('',#888);
#309=VERTEX_POINT('',#892);
#310=VERTEX_POINT('',#896);
#311=VERTEX_POINT('',#900);
#312=VERTEX_POINT('',#904);
#313=VERTEX_POINT('',#908);
#314=VERTEX_POINT('',#914);
#315=VERTEX_POINT('',#916);
#316=VERTEX_POINT('',#920);
#317=VERTEX_POINT('',#924);
#318=EDGE_CURVE('',#272,#273,#245,.T.);
#319=EDGE_CURVE('',#273,#274,#151,.T.);
#320=EDGE_CURVE('',#274,#275,#246,.T.);
#321=EDGE_CURVE('',#275,#272,#152,.T.);
#322=EDGE_CURVE('',#273,#276,#153,.T.);
#323=EDGE_CURVE('',#277,#276,#154,.T.);
#324=EDGE_CURVE('',#274,#277,#155,.T.);
#325=EDGE_CURVE('',#278,#279,#247,.T.);
#326=EDGE_CURVE('',#279,#280,#156,.T.);
#327=EDGE_CURVE('',#280,#281,#248,.T.);
#328=EDGE_CURVE('',#281,#278,#157,.T.);
#329=EDGE_CURVE('',#279,#282,#158,.T.);
#330=EDGE_CURVE('',#283,#282,#159,.T.);
#331=EDGE_CURVE('',#280,#283,#160,.T.);
#332=EDGE_CURVE('',#284,#284,#249,.T.);
#333=EDGE_CURVE('',#284,#285,#161,.T.);
#334=EDGE_CURVE('',#285,#285,#250,.T.);
#335=EDGE_CURVE('',#286,#286,#251,.T.);
#336=EDGE_CURVE('',#286,#287,#162,.T.);
#337=EDGE_CURVE('',#287,#287,#252,.T.);
#338=EDGE_CURVE('',#288,#288,#253,.T.);
#339=EDGE_CURVE('',#288,#289,#163,.T.);
#340=EDGE_CURVE('',#289,#289,#254,.T.);
#341=EDGE_CURVE('',#290,#290,#255,.T.);
#342=EDGE_CURVE('',#290,#291,#164,.T.);
#343=EDGE_CURVE('',#291,#291,#256,.T.);
#344=EDGE_CURVE('',#276,#292,#165,.T.);
#345=EDGE_CURVE('',#292,#293,#166,.T.);
#346=EDGE_CURVE('',#293,#277,#167,.T.);
#347=EDGE_CURVE('',#282,#294,#168,.T.);
#348=EDGE_CURVE('',#294,#295,#169,.T.);
#349=EDGE_CURVE('',#295,#283,#170,.T.);
#350=EDGE_CURVE('',#278,#275,#171,.T.);
#351=EDGE_CURVE('',#272,#281,#172,.T.);
#352=EDGE_CURVE('',#296,#296,#257,.T.);
#353=EDGE_CURVE('',#297,#298,#173,.T.);
#354=EDGE_CURVE('',#299,#297,#258,.T.);
#355=EDGE_CURVE('',#300,#299,#174,.T.);
#356=EDGE_CURVE('',#301,#300,#259,.T.);
#357=EDGE_CURVE('',#302,#301,#175,.T.);
#358=EDGE_CURVE('',#303,#302,#260,.T.);
#359=EDGE_CURVE('',#304,#303,#176,.T.);
#360=EDGE_CURVE('',#298,#304,#261,.T.);
#361=EDGE_CURVE('',#305,#305,#262,.T.);
#362=EDGE_CURVE('',#305,#296,#177,.T.);
#363=EDGE_CURVE('',#297,#306,#178,.T.);
#364=EDGE_CURVE('',#307,#306,#263,.T.);
#365=EDGE_CURVE('',#299,#307,#179,.T.);
#366=EDGE_CURVE('',#308,#307,#180,.T.);
#367=EDGE_CURVE('',#300,#308,#181,.T.);
#368=EDGE_CURVE('',#309,#308,#264,.T.);
#369=EDGE_CURVE('',#301,#309,#182,.T.);
#370=EDGE_CURVE('',#310,#309,#183,.T.);
#371=EDGE_CURVE('',#302,#310,#184,.T.);
#372=EDGE_CURVE('',#311,#310,#265,.T.);
#373=EDGE_CURVE('',#303,#311,#185,.T.);
#374=EDGE_CURVE('',#312,#311,#186,.T.);
#375=EDGE_CURVE('',#304,#312,#187,.T.);
#376=EDGE_CURVE('',#313,#312,#266,.T.);
#377=EDGE_CURVE('',#298,#313,#188,.T.);
#378=EDGE_CURVE('',#306,#313,#189,.T.);
#379=EDGE_CURVE('',#314,#294,#190,.T.);
#380=EDGE_CURVE('',#315,#314,#191,.T.);
#381=EDGE_CURVE('',#295,#315,#192,.T.);
#382=EDGE_CURVE('',#316,#315,#193,.T.);
#383=EDGE_CURVE('',#292,#316,#194,.T.);
#384=EDGE_CURVE('',#317,#316,#195,.T.);
#385=EDGE_CURVE('',#293,#317,#196,.T.);
#386=EDGE_CURVE('',#314,#317,#197,.T.);
#387=ORIENTED_EDGE('',*,*,#318,.T.);
#388=ORIENTED_EDGE('',*,*,#319,.T.);
#389=ORIENTED_EDGE('',*,*,#320,.T.);
#390=ORIENTED_EDGE('',*,*,#321,.T.);
#391=ORIENTED_EDGE('',*,*,#319,.F.);
#392=ORIENTED_EDGE('',*,*,#322,.T.);
#393=ORIENTED_EDGE('',*,*,#323,.F.);
#394=ORIENTED_EDGE('',*,*,#324,.F.);
#395=ORIENTED_EDGE('',*,*,#325,.T.);
#396=ORIENTED_EDGE('',*,*,#326,.T.);
#397=ORIENTED_EDGE('',*,*,#327,.T.);
#398=ORIENTED_EDGE('',*,*,#328,.T.);
#399=ORIENTED_EDGE('',*,*,#326,.F.);
#400=ORIENTED_EDGE('',*,*,#329,.T.);
#401=ORIENTED_EDGE('',*,*,#330,.F.);
#402=ORIENTED_EDGE('',*,*,#331,.F.);
#403=ORIENTED_EDGE('',*,*,#332,.F.);
#404=ORIENTED_EDGE('',*,*,#333,.T.);
#405=ORIENTED_EDGE('',*,*,#334,.F.);
#406=ORIENTED_EDGE('',*,*,#333,.F.);
#407=ORIENTED_EDGE('',*,*,#335,.F.);
#408=ORIENTED_EDGE('',*,*,#336,.T.);
#409=ORIENTED_EDGE('',*,*,#337,.F.);
#410=ORIENTED_EDGE('',*,*,#336,.F.);
#411=ORIENTED_EDGE('',*,*,#338,.F.);
#412=ORIENTED_EDGE('',*,*,#339,.T.);
#413=ORIENTED_EDGE('',*,*,#340,.F.);
#414=ORIENTED_EDGE('',*,*,#339,.F.);
#415=ORIENTED_EDGE('',*,*,#341,.F.);
#416=ORIENTED_EDGE('',*,*,#342,.T.);
#417=ORIENTED_EDGE('',*,*,#343,.F.);
#418=ORIENTED_EDGE('',*,*,#342,.F.);
#419=ORIENTED_EDGE('',*,*,#323,.T.);
#420=ORIENTED_EDGE('',*,*,#344,.T.);
#421=ORIENTED_EDGE('',*,*,#345,.T.);
#422=ORIENTED_EDGE('',*,*,#346,.T.);
#423=ORIENTED_EDGE('',*,*,#340,.T.);
#424=ORIENTED_EDGE('',*,*,#343,.T.);
#425=ORIENTED_EDGE('',*,*,#347,.T.);
#426=ORIENTED_EDGE('',*,*,#348,.T.);
#427=ORIENTED_EDGE('',*,*,#349,.T.);
#428=ORIENTED_EDGE('',*,*,#330,.T.);
#429=ORIENTED_EDGE('',*,*,#334,.T.);
#430=ORIENTED_EDGE('',*,*,#337,.T.);
#431=ORIENTED_EDGE('',*,*,#321,.F.);
#432=ORIENTED_EDGE('',*,*,#350,.F.);
#433=ORIENTED_EDGE('',*,*,#328,.F.);
#434=ORIENTED_EDGE('',*,*,#351,.F.);
#435=ORIENTED_EDGE('',*,*,#352,.F.);
#436=ORIENTED_EDGE('',*,*,#353,.F.);
#437=ORIENTED_EDGE('',*,*,#354,.F.);
#438=ORIENTED_EDGE('',*,*,#355,.F.);
#439=ORIENTED_EDGE('',*,*,#356,.F.);
#440=ORIENTED_EDGE('',*,*,#357,.F.);
#441=ORIENTED_EDGE('',*,*,#358,.F.);
#442=ORIENTED_EDGE('',*,*,#359,.F.);
#443=ORIENTED_EDGE('',*,*,#360,.F.);
#444=ORIENTED_EDGE('',*,*,#361,.F.);
#445=ORIENTED_EDGE('',*,*,#362,.T.);
#446=ORIENTED_EDGE('',*,*,#352,.T.);
#447=ORIENTED_EDGE('',*,*,#362,.F.);
#448=ORIENTED_EDGE('',*,*,#354,.T.);
#449=ORIENTED_EDGE('',*,*,#363,.T.);
#450=ORIENTED_EDGE('',*,*,#364,.F.);
#451=ORIENTED_EDGE('',*,*,#365,.F.);
#452=ORIENTED_EDGE('',*,*,#355,.T.);
#453=ORIENTED_EDGE('',*,*,#365,.T.);
#454=ORIENTED_EDGE('',*,*,#366,.F.);
#455=ORIENTED_EDGE('',*,*,#367,.F.);
#456=ORIENTED_EDGE('',*,*,#356,.T.);
#457=ORIENTED_EDGE('',*,*,#367,.T.);
#458=ORIENTED_EDGE('',*,*,#368,.F.);
#459=ORIENTED_EDGE('',*,*,#369,.F.);
#460=ORIENTED_EDGE('',*,*,#357,.T.);
#461=ORIENTED_EDGE('',*,*,#369,.T.);
#462=ORIENTED_EDGE('',*,*,#370,.F.);
#463=ORIENTED_EDGE('',*,*,#371,.F.);
#464=ORIENTED_EDGE('',*,*,#358,.T.);
#465=ORIENTED_EDGE('',*,*,#371,.T.);
#466=ORIENTED_EDGE('',*,*,#372,.F.);
#467=ORIENTED_EDGE('',*,*,#373,.F.);
#468=ORIENTED_EDGE('',*,*,#359,.T.);
#469=ORIENTED_EDGE('',*,*,#373,.T.);
#470=ORIENTED_EDGE('',*,*,#374,.F.);
#471=ORIENTED_EDGE('',*,*,#375,.F.);
#472=ORIENTED_EDGE('',*,*,#360,.T.);
#473=ORIENTED_EDGE('',*,*,#375,.T.);
#474=ORIENTED_EDGE('',*,*,#376,.F.);
#475=ORIENTED_EDGE('',*,*,#377,.F.);
#476=ORIENTED_EDGE('',*,*,#353,.T.);
#477=ORIENTED_EDGE('',*,*,#377,.T.);
#478=ORIENTED_EDGE('',*,*,#378,.F.);
#479=ORIENTED_EDGE('',*,*,#363,.F.);
#480=ORIENTED_EDGE('',*,*,#379,.F.);
#481=ORIENTED_EDGE('',*,*,#380,.F.);
#482=ORIENTED_EDGE('',*,*,#381,.F.);
#483=ORIENTED_EDGE('',*,*,#348,.F.);
#484=ORIENTED_EDGE('',*,*,#351,.T.);
#485=ORIENTED_EDGE('',*,*,#327,.F.);
#486=ORIENTED_EDGE('',*,*,#331,.T.);
#487=ORIENTED_EDGE('',*,*,#349,.F.);
#488=ORIENTED_EDGE('',*,*,#381,.T.);
#489=ORIENTED_EDGE('',*,*,#382,.F.);
#490=ORIENTED_EDGE('',*,*,#383,.F.);
#491=ORIENTED_EDGE('',*,*,#344,.F.);
#492=ORIENTED_EDGE('',*,*,#322,.F.);
#493=ORIENTED_EDGE('',*,*,#318,.F.);
#494=ORIENTED_EDGE('',*,*,#383,.T.);
#495=ORIENTED_EDGE('',*,*,#384,.F.);
#496=ORIENTED_EDGE('',*,*,#385,.F.);
#497=ORIENTED_EDGE('',*,*,#345,.F.);
#498=ORIENTED_EDGE('',*,*,#350,.T.);
#499=ORIENTED_EDGE('',*,*,#320,.F.);
#500=ORIENTED_EDGE('',*,*,#324,.T.);
#501=ORIENTED_EDGE('',*,*,#346,.F.);
#502=ORIENTED_EDGE('',*,*,#385,.T.);
#503=ORIENTED_EDGE('',*,*,#386,.F.);
#504=ORIENTED_EDGE('',*,*,#379,.T.);
#505=ORIENTED_EDGE('',*,*,#347,.F.);
#506=ORIENTED_EDGE('',*,*,#329,.F.);
#507=ORIENTED_EDGE('',*,*,#325,.F.);
#508=ORIENTED_EDGE('',*,*,#386,.T.);
#509=ORIENTED_EDGE('',*,*,#384,.T.);
#510=ORIENTED_EDGE('',*,*,#382,.T.);
#511=ORIENTED_EDGE('',*,*,#380,.T.);
#512=ORIENTED_EDGE('',*,*,#332,.T.);
#513=ORIENTED_EDGE('',*,*,#335,.T.);
#514=ORIENTED_EDGE('',*,*,#338,.T.);
#515=ORIENTED_EDGE('',*,*,#341,.T.);
#516=ORIENTED_EDGE('',*,*,#378,.T.);
#517=ORIENTED_EDGE('',*,*,#376,.T.);
#518=ORIENTED_EDGE('',*,*,#374,.T.);
#519=ORIENTED_EDGE('',*,*,#372,.T.);
#520=ORIENTED_EDGE('',*,*,#370,.T.);
#521=ORIENTED_EDGE('',*,*,#368,.T.);
#522=ORIENTED_EDGE('',*,*,#366,.T.);
#523=ORIENTED_EDGE('',*,*,#364,.T.);
#524=ORIENTED_EDGE('',*,*,#361,.T.);
#525=CYLINDRICAL_SURFACE('',#584,4.);
#526=CYLINDRICAL_SURFACE('',#588,4.);
#527=CYLINDRICAL_SURFACE('',#592,2.5);
#528=CYLINDRICAL_SURFACE('',#595,2.5);
#529=CYLINDRICAL_SURFACE('',#598,2.5);
#530=CYLINDRICAL_SURFACE('',#601,2.5);
#531=CYLINDRICAL_SURFACE('',#612,2.5);
#532=CYLINDRICAL_SURFACE('',#614,2.00000000000001);
#533=CYLINDRICAL_SURFACE('',#617,2.00000000000001);
#534=CYLINDRICAL_SURFACE('',#620,2.00000000000001);
#535=CYLINDRICAL_SURFACE('',#623,2.00000000000001);
#536=ADVANCED_FACE('',(#89),#525,.F.);
#537=ADVANCED_FACE('',(#90),#75,.T.);
#538=ADVANCED_FACE('',(#91),#526,.F.);
#539=ADVANCED_FACE('',(#92),#76,.T.);
#540=ADVANCED_FACE('',(#93),#527,.F.);
#541=ADVANCED_FACE('',(#94),#528,.F.);
#542=ADVANCED_FACE('',(#95),#529,.F.);
#543=ADVANCED_FACE('',(#96),#530,.F.);
#544=ADVANCED_FACE('',(#97,#63,#64),#77,.T.);
#545=ADVANCED_FACE('',(#98,#65,#66),#78,.T.);
#546=ADVANCED_FACE('',(#99,#67,#68),#79,.F.);
#547=ADVANCED_FACE('',(#100),#531,.F.);
#548=ADVANCED_FACE('',(#101),#532,.F.);
#549=ADVANCED_FACE('',(#102),#80,.T.);
#550=ADVANCED_FACE('',(#103),#533,.F.);
#551=ADVANCED_FACE('',(#104),#81,.T.);
#552=ADVANCED_FACE('',(#105),#534,.F.);
#553=ADVANCED_FACE('',(#106),#82,.T.);
#554=ADVANCED_FACE('',(#107),#535,.F.);
#555=ADVANCED_FACE('',(#108),#83,.T.);
#556=ADVANCED_FACE('',(#109),#84,.T.);
#557=ADVANCED_FACE('',(#110),#85,.T.);
#558=ADVANCED_FACE('',(#111),#86,.T.);
#559=ADVANCED_FACE('',(#112),#87,.T.);
#560=ADVANCED_FACE('',(#113,#69,#70,#71,#72,#73,#74),#88,.T.);
#561=CLOSED_SHELL('',(#536,#537,#538,#539,#540,#541,#542,#543,#544,#545,
#546,#547,#548,#549,#550,#551,#552,#553,#554,#555,#556,#557,#558,#559,#560));
#562=DERIVED_UNIT_ELEMENT(#565,1.);
#563=DERIVED_UNIT_ELEMENT(#995,-3.);
#564=DIMENSIONAL_EXPONENTS(0.,1.,0.,0.,0.,0.,0.);
#565=(
CONVERSION_BASED_UNIT('gram',#567)
MASS_UNIT()
NAMED_UNIT(#564)
);
#566=(
MASS_UNIT()
NAMED_UNIT(*)
SI_UNIT(.KILO.,.GRAM.)
);
#567=MASS_MEASURE_WITH_UNIT(MASS_MEASURE(0.001),#566);
#568=DERIVED_UNIT((#562,#563));
#569=MEASURE_REPRESENTATION_ITEM('density measure',
POSITIVE_RATIO_MEASURE(1.),#568);
#570=PROPERTY_DEFINITION_REPRESENTATION(#575,#572);
#571=PROPERTY_DEFINITION_REPRESENTATION(#576,#573);
#572=REPRESENTATION('material name',(#574),#992);
#573=REPRESENTATION('density',(#569),#992);
#574=DESCRIPTIVE_REPRESENTATION_ITEM('Generic','Generic');
#575=PROPERTY_DEFINITION('material property','material name',#1002);
#576=PROPERTY_DEFINITION('material property','density of part',#1002);
#577=DATE_TIME_ROLE('creation_date');
#578=APPLIED_DATE_AND_TIME_ASSIGNMENT(#579,#577,(#1002));
#579=DATE_AND_TIME(#580,#581);
#580=CALENDAR_DATE(2026,2,5);
#581=LOCAL_TIME(0,0,0.,#582);
#582=COORDINATED_UNIVERSAL_TIME_OFFSET(0,0,.BEHIND.);
#583=AXIS2_PLACEMENT_3D('',#789,#636,#637);
#584=AXIS2_PLACEMENT_3D('',#790,#638,#639);
#585=AXIS2_PLACEMENT_3D('',#793,#640,#641);
#586=AXIS2_PLACEMENT_3D('',#797,#643,#644);
#587=AXIS2_PLACEMENT_3D('',#799,#646,#647);
#588=AXIS2_PLACEMENT_3D('',#805,#651,#652);
#589=AXIS2_PLACEMENT_3D('',#808,#653,#654);
#590=AXIS2_PLACEMENT_3D('',#812,#656,#657);
#591=AXIS2_PLACEMENT_3D('',#814,#659,#660);
#592=AXIS2_PLACEMENT_3D('',#820,#664,#665);
#593=AXIS2_PLACEMENT_3D('',#822,#666,#667);
#594=AXIS2_PLACEMENT_3D('',#825,#669,#670);
#595=AXIS2_PLACEMENT_3D('',#826,#671,#672);
#596=AXIS2_PLACEMENT_3D('',#828,#673,#674);
#597=AXIS2_PLACEMENT_3D('',#831,#676,#677);
#598=AXIS2_PLACEMENT_3D('',#832,#678,#679);
#599=AXIS2_PLACEMENT_3D('',#834,#680,#681);
#600=AXIS2_PLACEMENT_3D('',#837,#683,#684);
#601=AXIS2_PLACEMENT_3D('',#838,#685,#686);
#602=AXIS2_PLACEMENT_3D('',#840,#687,#688);
#603=AXIS2_PLACEMENT_3D('',#843,#690,#691);
#604=AXIS2_PLACEMENT_3D('',#844,#692,#693);
#605=AXIS2_PLACEMENT_3D('',#850,#697,#698);
#606=AXIS2_PLACEMENT_3D('',#856,#702,#703);
#607=AXIS2_PLACEMENT_3D('',#860,#706,#707);
#608=AXIS2_PLACEMENT_3D('',#865,#709,#710);
#609=AXIS2_PLACEMENT_3D('',#869,#712,#713);
#610=AXIS2_PLACEMENT_3D('',#873,#715,#716);
#611=AXIS2_PLACEMENT_3D('',#876,#718,#719);
#612=AXIS2_PLACEMENT_3D('',#877,#720,#721);
#613=AXIS2_PLACEMENT_3D('',#879,#722,#723);
#614=AXIS2_PLACEMENT_3D('',#881,#725,#726);
#615=AXIS2_PLACEMENT_3D('',#885,#728,#729);
#616=AXIS2_PLACEMENT_3D('',#887,#731,#732);
#617=AXIS2_PLACEMENT_3D('',#891,#735,#736);
#618=AXIS2_PLACEMENT_3D('',#893,#737,#738);
#619=AXIS2_PLACEMENT_3D('',#895,#740,#741);
#620=AXIS2_PLACEMENT_3D('',#899,#744,#745);
#621=AXIS2_PLACEMENT_3D('',#901,#746,#747);
#622=AXIS2_PLACEMENT_3D('',#903,#749,#750);
#623=AXIS2_PLACEMENT_3D('',#907,#753,#754);
#624=AXIS2_PLACEMENT_3D('',#909,#755,#756);
#625=AXIS2_PLACEMENT_3D('',#911,#758,#759);
#626=AXIS2_PLACEMENT_3D('',#913,#761,#762);
#627=AXIS2_PLACEMENT_3D('',#919,#766,#767);
#628=AXIS2_PLACEMENT_3D('',#923,#770,#771);
#629=AXIS2_PLACEMENT_3D('',#927,#774,#775);
#630=AXIS2_PLACEMENT_3D('',#929,#777,#778);
#631=AXIS2_PLACEMENT_3D('',#934,#779,#780);
#632=AXIS2_PLACEMENT_3D('',#939,#781,#782);
#633=AXIS2_PLACEMENT_3D('',#942,#783,#784);
#634=AXIS2_PLACEMENT_3D('',#945,#785,#786);
#635=AXIS2_PLACEMENT_3D('',#950,#787,#788);
#636=DIRECTION('axis',(0.,0.,1.));
#637=DIRECTION('refdir',(1.,0.,0.));
#638=DIRECTION('center_axis',(0.,-1.,0.));
#639=DIRECTION('ref_axis',(0.707106781186549,0.,0.707106781186546));
#640=DIRECTION('center_axis',(0.,1.,0.));
#641=DIRECTION('ref_axis',(0.707106781186549,0.,0.707106781186546));
#642=DIRECTION('',(0.,-1.,0.));
#643=DIRECTION('center_axis',(0.,-1.,0.));
#644=DIRECTION('ref_axis',(0.707106781186549,0.,0.707106781186546));
#645=DIRECTION('',(0.,1.,0.));
#646=DIRECTION('center_axis',(-1.,0.,0.));
#647=DIRECTION('ref_axis',(0.,1.,0.));
#648=DIRECTION('',(0.,0.,-1.));
#649=DIRECTION('',(0.,1.,0.));
#650=DIRECTION('',(0.,0.,-1.));
#651=DIRECTION('center_axis',(3.70967780871434E-16,1.,0.));
#652=DIRECTION('ref_axis',(-0.707106781186548,7.85046229341887E-16,0.707106781186547));
#653=DIRECTION('center_axis',(0.,-1.,0.));
#654=DIRECTION('ref_axis',(-0.707106781186548,7.85046229341887E-16,0.707106781186547));
#655=DIRECTION('',(3.70967780871434E-16,1.,0.));
#656=DIRECTION('center_axis',(0.,1.,0.));
#657=DIRECTION('ref_axis',(-0.707106781186548,7.85046229341887E-16,0.707106781186547));
#658=DIRECTION('',(-3.70967780871434E-16,-1.,0.));
#659=DIRECTION('center_axis',(1.,-3.70967780871434E-16,0.));
#660=DIRECTION('ref_axis',(-3.70967780871434E-16,-1.,0.));
#661=DIRECTION('',(0.,0.,-1.));
#662=DIRECTION('',(-3.70967780871434E-16,-1.,0.));
#663=DIRECTION('',(0.,0.,-1.));
#664=DIRECTION('center_axis',(0.,0.,1.));
#665=DIRECTION('ref_axis',(1.,0.,0.));
#666=DIRECTION('center_axis',(0.,0.,-1.));
#667=DIRECTION('ref_axis',(1.,0.,0.));
#668=DIRECTION('',(0.,0.,-1.));
#669=DIRECTION('center_axis',(0.,0.,1.));
#670=DIRECTION('ref_axis',(1.,0.,0.));
#671=DIRECTION('center_axis',(0.,0.,1.));
#672=DIRECTION('ref_axis',(1.,0.,0.));
#673=DIRECTION('center_axis',(0.,0.,-1.));
#674=DIRECTION('ref_axis',(1.,0.,0.));
#675=DIRECTION('',(0.,0.,-1.));
#676=DIRECTION('center_axis',(0.,0.,1.));
#677=DIRECTION('ref_axis',(1.,0.,0.));
#678=DIRECTION('center_axis',(0.,0.,1.));
#679=DIRECTION('ref_axis',(1.,0.,0.));
#680=DIRECTION('center_axis',(0.,0.,-1.));
#681=DIRECTION('ref_axis',(1.,0.,0.));
#682=DIRECTION('',(0.,0.,-1.));
#683=DIRECTION('center_axis',(0.,0.,1.));
#684=DIRECTION('ref_axis',(1.,0.,0.));
#685=DIRECTION('center_axis',(0.,0.,1.));
#686=DIRECTION('ref_axis',(1.,0.,0.));
#687=DIRECTION('center_axis',(0.,0.,-1.));
#688=DIRECTION('ref_axis',(1.,0.,0.));
#689=DIRECTION('',(0.,0.,-1.));
#690=DIRECTION('center_axis',(0.,0.,1.));
#691=DIRECTION('ref_axis',(1.,0.,0.));
#692=DIRECTION('center_axis',(0.,0.,-1.));
#693=DIRECTION('ref_axis',(-1.,0.,0.));
#694=DIRECTION('',(1.,0.,0.));
#695=DIRECTION('',(0.,-1.,0.));
#696=DIRECTION('',(-1.,0.,0.));
#697=DIRECTION('center_axis',(0.,0.,-1.));
#698=DIRECTION('ref_axis',(-1.,0.,0.));
#699=DIRECTION('',(-1.,0.,0.));
#700=DIRECTION('',(-4.93432455388958E-16,1.,0.));
#701=DIRECTION('',(1.,-1.00929365875014E-16,0.));
#702=DIRECTION('center_axis',(0.,0.,1.));
#703=DIRECTION('ref_axis',(1.,0.,0.));
#704=DIRECTION('',(1.,0.,0.));
#705=DIRECTION('',(-1.,0.,0.));
#706=DIRECTION('center_axis',(0.,0.,-1.));
#707=DIRECTION('ref_axis',(-1.,0.,0.));
#708=DIRECTION('',(-1.,-1.51394048812521E-16,0.));
#709=DIRECTION('center_axis',(0.,0.,-1.));
#710=DIRECTION('ref_axis',(0.,1.,0.));
#711=DIRECTION('',(0.,-1.,0.));
#712=DIRECTION('center_axis',(0.,0.,-1.));
#713=DIRECTION('ref_axis',(-1.,0.,0.));
#714=DIRECTION('',(1.,4.03717463500057E-16,0.));
#715=DIRECTION('center_axis',(0.,0.,-1.));
#716=DIRECTION('ref_axis',(0.,-1.,0.));
#717=DIRECTION('',(0.,1.,0.));
#718=DIRECTION('center_axis',(0.,0.,-1.));
#719=DIRECTION('ref_axis',(1.,5.55111512312578E-16,0.));
#720=DIRECTION('center_axis',(0.,0.,1.));
#721=DIRECTION('ref_axis',(-1.,0.,0.));
#722=DIRECTION('center_axis',(0.,0.,-1.));
#723=DIRECTION('ref_axis',(-1.,0.,0.));
#724=DIRECTION('',(0.,0.,-1.));
#725=DIRECTION('center_axis',(0.,0.,1.));
#726=DIRECTION('ref_axis',(0.,1.,0.));
#727=DIRECTION('',(0.,0.,1.));
#728=DIRECTION('center_axis',(0.,0.,-1.));
#729=DIRECTION('ref_axis',(0.,1.,0.));
#730=DIRECTION('',(0.,0.,1.));
#731=DIRECTION('center_axis',(-1.,0.,0.));
#732=DIRECTION('ref_axis',(0.,-1.,0.));
#733=DIRECTION('',(0.,-1.,0.));
#734=DIRECTION('',(0.,0.,1.));
#735=DIRECTION('center_axis',(0.,0.,1.));
#736=DIRECTION('ref_axis',(-1.,0.,0.));
#737=DIRECTION('center_axis',(0.,0.,-1.));
#738=DIRECTION('ref_axis',(-1.,0.,0.));
#739=DIRECTION('',(0.,0.,1.));
#740=DIRECTION('center_axis',(4.03717463500057E-16,-1.,0.));
#741=DIRECTION('ref_axis',(1.,4.03717463500057E-16,0.));
#742=DIRECTION('',(1.,4.03717463500057E-16,0.));
#743=DIRECTION('',(0.,0.,1.));
#744=DIRECTION('center_axis',(0.,0.,1.));
#745=DIRECTION('ref_axis',(0.,-1.,0.));
#746=DIRECTION('center_axis',(0.,0.,-1.));
#747=DIRECTION('ref_axis',(0.,-1.,0.));
#748=DIRECTION('',(0.,0.,1.));
#749=DIRECTION('center_axis',(1.,0.,0.));
#750=DIRECTION('ref_axis',(0.,1.,0.));
#751=DIRECTION('',(0.,1.,0.));
#752=DIRECTION('',(0.,0.,1.));
#753=DIRECTION('center_axis',(0.,0.,1.));
#754=DIRECTION('ref_axis',(1.,5.55111512312578E-16,0.));
#755=DIRECTION('center_axis',(0.,0.,-1.));
#756=DIRECTION('ref_axis',(1.,5.55111512312578E-16,0.));
#757=DIRECTION('',(0.,0.,1.));
#758=DIRECTION('center_axis',(-1.51394048812521E-16,1.,0.));
#759=DIRECTION('ref_axis',(-1.,-1.51394048812521E-16,0.));
#760=DIRECTION('',(-1.,-1.51394048812521E-16,0.));
#761=DIRECTION('center_axis',(-1.,-4.93432455388958E-16,0.));
#762=DIRECTION('ref_axis',(4.93432455388958E-16,-1.,0.));
#763=DIRECTION('',(0.,0.,-1.));
#764=DIRECTION('',(4.93432455388958E-16,-1.,0.));
#765=DIRECTION('',(0.,0.,1.));
#766=DIRECTION('center_axis',(0.,1.,0.));
#767=DIRECTION('ref_axis',(-1.,0.,0.));
#768=DIRECTION('',(-1.,0.,0.));
#769=DIRECTION('',(0.,0.,1.));
#770=DIRECTION('center_axis',(1.,0.,0.));
#771=DIRECTION('ref_axis',(0.,1.,0.));
#772=DIRECTION('',(0.,1.,0.));
#773=DIRECTION('',(0.,0.,1.));
#774=DIRECTION('center_axis',(0.,-1.,0.));
#775=DIRECTION('ref_axis',(1.,0.,0.));
#776=DIRECTION('',(1.,0.,0.));
#777=DIRECTION('center_axis',(0.,0.,1.));
#778=DIRECTION('ref_axis',(1.,0.,0.));
#779=DIRECTION('center_axis',(0.,0.,1.));
#780=DIRECTION('ref_axis',(1.,0.,0.));
#781=DIRECTION('center_axis',(0.,0.,1.));
#782=DIRECTION('ref_axis',(1.,0.,0.));
#783=DIRECTION('center_axis',(0.,0.,1.));
#784=DIRECTION('ref_axis',(1.,0.,0.));
#785=DIRECTION('center_axis',(0.,0.,1.));
#786=DIRECTION('ref_axis',(1.,0.,0.));
#787=DIRECTION('center_axis',(0.,0.,1.));
#788=DIRECTION('ref_axis',(1.,0.,0.));
#789=CARTESIAN_POINT('',(0.,0.,0.));
#790=CARTESIAN_POINT('Origin',(88.,4.50000000000001,-4.));
#791=CARTESIAN_POINT('',(88.,18.,0.));
#792=CARTESIAN_POINT('',(92.,18.,-4.));
#793=CARTESIAN_POINT('Origin',(88.,18.,-4.));
#794=CARTESIAN_POINT('',(92.,0.,-4.));
#795=CARTESIAN_POINT('',(92.,4.50000000000001,-4.));
#796=CARTESIAN_POINT('',(88.,0.,0.));
#797=CARTESIAN_POINT('Origin',(88.,0.,-4.));
#798=CARTESIAN_POINT('',(88.,4.50000000000001,0.));
#799=CARTESIAN_POINT('Origin',(92.,0.,0.));
#800=CARTESIAN_POINT('',(92.,18.,-30.));
#801=CARTESIAN_POINT('',(92.,18.,0.));
#802=CARTESIAN_POINT('',(92.,0.,-30.));
#803=CARTESIAN_POINT('',(92.,18.,-30.));
#804=CARTESIAN_POINT('',(92.,0.,0.));
#805=CARTESIAN_POINT('Origin',(4.00000000000001,13.5,-4.));
#806=CARTESIAN_POINT('',(4.,0.,0.));
#807=CARTESIAN_POINT('',(0.,0.,-4.));
#808=CARTESIAN_POINT('Origin',(4.,-8.88178419700125E-15,-4.));
#809=CARTESIAN_POINT('',(6.67742005568581E-15,18.,-4.));
#810=CARTESIAN_POINT('',(4.9960036108132E-15,13.5,-4.));
#811=CARTESIAN_POINT('',(4.,18.,0.));
#812=CARTESIAN_POINT('Origin',(4.00000000000001,18.,-4.));
#813=CARTESIAN_POINT('',(4.00000000000001,13.5,0.));
#814=CARTESIAN_POINT('Origin',(6.67742005568581E-15,18.,0.));
#815=CARTESIAN_POINT('',(0.,0.,-30.));
#816=CARTESIAN_POINT('',(0.,0.,0.));
#817=CARTESIAN_POINT('',(8.88178419700125E-15,18.,-30.));
#818=CARTESIAN_POINT('',(0.,0.,-30.));
#819=CARTESIAN_POINT('',(6.67742005568581E-15,18.,0.));
#820=CARTESIAN_POINT('Origin',(-16.5,8.99999999999997,0.));
#821=CARTESIAN_POINT('',(-19.,8.99999999999997,3.5));
#822=CARTESIAN_POINT('Origin',(-16.5,8.99999999999997,3.5));
#823=CARTESIAN_POINT('',(-19.,8.99999999999997,-30.));
#824=CARTESIAN_POINT('',(-19.,8.99999999999997,0.));
#825=CARTESIAN_POINT('Origin',(-16.5,8.99999999999997,-30.));
#826=CARTESIAN_POINT('Origin',(-3.99999999999999,8.99999999999997,0.));
#827=CARTESIAN_POINT('',(-6.49999999999999,8.99999999999997,3.5));
#828=CARTESIAN_POINT('Origin',(-3.99999999999999,8.99999999999997,3.5));
#829=CARTESIAN_POINT('',(-6.49999999999999,8.99999999999997,-30.));
#830=CARTESIAN_POINT('',(-6.49999999999999,8.99999999999997,0.));
#831=CARTESIAN_POINT('Origin',(-3.99999999999999,8.99999999999997,-30.));
#832=CARTESIAN_POINT('Origin',(108.5,9.,0.));
#833=CARTESIAN_POINT('',(106.,9.,3.5));
#834=CARTESIAN_POINT('Origin',(108.5,9.,3.5));
#835=CARTESIAN_POINT('',(106.,9.,-30.));
#836=CARTESIAN_POINT('',(106.,9.,0.));
#837=CARTESIAN_POINT('Origin',(108.5,9.,-30.));
#838=CARTESIAN_POINT('Origin',(96.,9.,0.));
#839=CARTESIAN_POINT('',(93.5,9.,3.5));
#840=CARTESIAN_POINT('Origin',(96.,9.,3.5));
#841=CARTESIAN_POINT('',(93.5,9.,-30.));
#842=CARTESIAN_POINT('',(93.5,9.,0.));
#843=CARTESIAN_POINT('Origin',(96.,9.,-30.));
#844=CARTESIAN_POINT('Origin',(103.,9.,-30.));
#845=CARTESIAN_POINT('',(114.,18.,-30.));
#846=CARTESIAN_POINT('',(114.,18.,-30.));
#847=CARTESIAN_POINT('',(114.,0.,-30.));
#848=CARTESIAN_POINT('',(114.,2.22044604925031E-15,-30.));
#849=CARTESIAN_POINT('',(92.,0.,-30.));
#850=CARTESIAN_POINT('Origin',(-11.,9.,-30.));
#851=CARTESIAN_POINT('',(-22.,0.,-30.));
#852=CARTESIAN_POINT('',(-22.,0.,-30.));
#853=CARTESIAN_POINT('',(-22.,18.,-30.));
#854=CARTESIAN_POINT('',(-22.,18.,-30.));
#855=CARTESIAN_POINT('',(0.,18.,-30.));
#856=CARTESIAN_POINT('Origin',(46.,9.00000000000001,0.));
#857=CARTESIAN_POINT('',(-22.,0.,0.));
#858=CARTESIAN_POINT('',(114.,18.,0.));
#859=CARTESIAN_POINT('',(16.5,14.,0.));
#860=CARTESIAN_POINT('Origin',(14.,14.,0.));
#861=CARTESIAN_POINT('',(67.5,1.99999999999999,0.));
#862=CARTESIAN_POINT('',(56.5,1.99999999999999,0.));
#863=CARTESIAN_POINT('',(67.5,1.99999999999999,0.));
#864=CARTESIAN_POINT('',(69.5,3.99999999999999,0.));
#865=CARTESIAN_POINT('Origin',(67.5,3.99999999999999,0.));
#866=CARTESIAN_POINT('',(69.5,8.99999999999999,0.));
#867=CARTESIAN_POINT('',(69.5,8.99999999999999,0.));
#868=CARTESIAN_POINT('',(67.5,11.,0.));
#869=CARTESIAN_POINT('Origin',(67.5,8.99999999999999,0.));
#870=CARTESIAN_POINT('',(56.5,11.,0.));
#871=CARTESIAN_POINT('',(56.5,11.,0.));
#872=CARTESIAN_POINT('',(54.5,8.99999999999999,0.));
#873=CARTESIAN_POINT('Origin',(56.5,8.99999999999999,0.));
#874=CARTESIAN_POINT('',(54.5,3.99999999999999,0.));
#875=CARTESIAN_POINT('',(54.5,3.99999999999999,0.));
#876=CARTESIAN_POINT('Origin',(56.5,3.99999999999999,0.));
#877=CARTESIAN_POINT('Origin',(14.,14.,0.));
#878=CARTESIAN_POINT('',(16.5,14.,3.5));
#879=CARTESIAN_POINT('Origin',(14.,14.,3.5));
#880=CARTESIAN_POINT('',(16.5,14.,0.));
#881=CARTESIAN_POINT('Origin',(67.5,3.99999999999999,0.));
#882=CARTESIAN_POINT('',(67.5,1.99999999999999,3.5));
#883=CARTESIAN_POINT('',(67.5,1.99999999999999,0.));
#884=CARTESIAN_POINT('',(69.5,3.99999999999999,3.5));
#885=CARTESIAN_POINT('Origin',(67.5,3.99999999999999,3.5));
#886=CARTESIAN_POINT('',(69.5,3.99999999999999,0.));
#887=CARTESIAN_POINT('Origin',(69.5,8.99999999999999,0.));
#888=CARTESIAN_POINT('',(69.5,8.99999999999999,3.5));
#889=CARTESIAN_POINT('',(69.5,8.99999999999999,3.5));
#890=CARTESIAN_POINT('',(69.5,8.99999999999999,0.));
#891=CARTESIAN_POINT('Origin',(67.5,8.99999999999999,0.));
#892=CARTESIAN_POINT('',(67.5,11.,3.5));
#893=CARTESIAN_POINT('Origin',(67.5,8.99999999999999,3.5));
#894=CARTESIAN_POINT('',(67.5,11.,0.));
#895=CARTESIAN_POINT('Origin',(56.5,11.,0.));
#896=CARTESIAN_POINT('',(56.5,11.,3.5));
#897=CARTESIAN_POINT('',(56.5,11.,3.5));
#898=CARTESIAN_POINT('',(56.5,11.,0.));
#899=CARTESIAN_POINT('Origin',(56.5,8.99999999999999,0.));
#900=CARTESIAN_POINT('',(54.5,8.99999999999999,3.5));
#901=CARTESIAN_POINT('Origin',(56.5,8.99999999999999,3.5));
#902=CARTESIAN_POINT('',(54.5,8.99999999999999,0.));
#903=CARTESIAN_POINT('Origin',(54.5,3.99999999999999,0.));
#904=CARTESIAN_POINT('',(54.5,3.99999999999999,3.5));
#905=CARTESIAN_POINT('',(54.5,3.99999999999999,3.5));
#906=CARTESIAN_POINT('',(54.5,3.99999999999999,0.));
#907=CARTESIAN_POINT('Origin',(56.5,3.99999999999999,0.));
#908=CARTESIAN_POINT('',(56.5,1.99999999999999,3.5));
#909=CARTESIAN_POINT('Origin',(56.5,3.99999999999999,3.5));
#910=CARTESIAN_POINT('',(56.5,1.99999999999999,0.));
#911=CARTESIAN_POINT('Origin',(67.5,1.99999999999999,0.));
#912=CARTESIAN_POINT('',(67.5,1.99999999999999,3.5));
#913=CARTESIAN_POINT('Origin',(-22.,18.,0.));
#914=CARTESIAN_POINT('',(-22.,0.,3.5));
#915=CARTESIAN_POINT('',(-22.,0.,0.));
#916=CARTESIAN_POINT('',(-22.,18.,3.5));
#917=CARTESIAN_POINT('',(-22.,18.,3.5));
#918=CARTESIAN_POINT('',(-22.,18.,0.));
#919=CARTESIAN_POINT('Origin',(114.,18.,0.));
#920=CARTESIAN_POINT('',(114.,18.,3.5));
#921=CARTESIAN_POINT('',(114.,18.,3.5));
#922=CARTESIAN_POINT('',(114.,18.,0.));
#923=CARTESIAN_POINT('Origin',(114.,0.,0.));
#924=CARTESIAN_POINT('',(114.,0.,3.5));
#925=CARTESIAN_POINT('',(114.,2.22044604925031E-15,3.5));
#926=CARTESIAN_POINT('',(114.,0.,0.));
#927=CARTESIAN_POINT('Origin',(-22.,0.,0.));
#928=CARTESIAN_POINT('',(-22.,0.,3.5));
#929=CARTESIAN_POINT('Origin',(46.,9.00000000000001,3.5));
#930=CARTESIAN_POINT('polyline point',(0.,-3.60000000000001,0.));
#931=CARTESIAN_POINT('polyline point',(0.,21.6,0.));
#932=CARTESIAN_POINT('polyline point',(-49.2,0.,0.));
#933=CARTESIAN_POINT('polyline point',(141.2,0.,0.));
#934=CARTESIAN_POINT('Origin',(67.5,8.99999999999999,0.));
#935=CARTESIAN_POINT('',(69.5,8.99999999999999,0.));
#936=CARTESIAN_POINT('',(67.5,11.,0.));
#937=CARTESIAN_POINT('polyline point',(54.5,3.99999999999999,0.));
#938=CARTESIAN_POINT('polyline point',(54.5,8.99999999999999,0.));
#939=CARTESIAN_POINT('Origin',(56.5,3.99999999999999,0.));
#940=CARTESIAN_POINT('',(54.5,3.99999999999999,0.));
#941=CARTESIAN_POINT('',(56.5,1.99999999999998,0.));
#942=CARTESIAN_POINT('Origin',(56.5,8.99999999999999,0.));
#943=CARTESIAN_POINT('',(56.5,11.,0.));
#944=CARTESIAN_POINT('',(54.5,8.99999999999999,0.));
#945=CARTESIAN_POINT('Origin',(14.,14.,0.));
#946=CARTESIAN_POINT('polyline point',(69.5,8.99999999999999,0.));
#947=CARTESIAN_POINT('polyline point',(69.5,3.99999999999999,0.));
#948=CARTESIAN_POINT('polyline point',(67.5,1.99999999999999,0.));
#949=CARTESIAN_POINT('polyline point',(56.5,1.99999999999999,0.));
#950=CARTESIAN_POINT('Origin',(67.5,3.99999999999999,0.));
#951=CARTESIAN_POINT('',(67.5,1.99999999999998,0.));
#952=CARTESIAN_POINT('',(69.5,3.99999999999999,0.));
#953=CARTESIAN_POINT('polyline point',(56.5,11.,0.));
#954=CARTESIAN_POINT('polyline point',(67.5,11.,0.));
#955=CARTESIAN_POINT('polyline point',(6.67742005568581E-15,18.,0.));
#956=CARTESIAN_POINT('polyline point',(92.,18.,0.));
#957=CARTESIAN_POINT('polyline point',(92.,18.,0.));
#958=CARTESIAN_POINT('polyline point',(92.,1.92850921833879E-14,0.));
#959=CARTESIAN_POINT('polyline point',(92.,1.92850921833879E-14,0.));
#960=CARTESIAN_POINT('polyline point',(8.88178419700125E-15,-8.88178419700125E-15,
0.));
#961=CARTESIAN_POINT('polyline point',(8.88178419700125E-15,-8.88178419700125E-15,
0.));
#962=CARTESIAN_POINT('polyline point',(6.67742005568581E-15,18.,0.));
#963=CARTESIAN_POINT('polyline point',(-22.,18.,0.));
#964=CARTESIAN_POINT('polyline point',(-5.55111512312578E-16,18.,0.));
#965=CARTESIAN_POINT('polyline point',(-5.55111512312578E-16,18.,0.));
#966=CARTESIAN_POINT('polyline point',(5.55111512312578E-16,-1.11022302462516E-15,
0.));
#967=CARTESIAN_POINT('polyline point',(5.55111512312578E-16,-1.11022302462516E-15,
0.));
#968=CARTESIAN_POINT('polyline point',(-22.,-2.0818995585505E-15,0.));
#969=CARTESIAN_POINT('polyline point',(-22.,-2.0818995585505E-15,0.));
#970=CARTESIAN_POINT('polyline point',(-22.,18.,0.));
#971=CARTESIAN_POINT('polyline point',(92.,18.,0.));
#972=CARTESIAN_POINT('polyline point',(114.,18.,0.));
#973=CARTESIAN_POINT('polyline point',(114.,18.,0.));
#974=CARTESIAN_POINT('polyline point',(114.,2.20436423846524E-15,0.));
#975=CARTESIAN_POINT('polyline point',(114.,2.20436423846524E-15,0.));
#976=CARTESIAN_POINT('polyline point',(92.,1.92850921833879E-14,0.));
#977=CARTESIAN_POINT('polyline point',(92.,1.92850921833879E-14,0.));
#978=CARTESIAN_POINT('polyline point',(92.,18.,0.));
#979=CARTESIAN_POINT('',(-22.,0.,0.));
#980=CARTESIAN_POINT('',(114.,0.,0.));
#981=CARTESIAN_POINT('',(92.,18.,0.));
#982=CARTESIAN_POINT('',(6.67742005568581E-15,18.,0.));
#983=CARTESIAN_POINT('',(92.,18.,0.));
#984=CARTESIAN_POINT('',(92.,0.,0.));
#985=CARTESIAN_POINT('',(6.67742005568581E-15,18.,0.));
#986=CARTESIAN_POINT('',(96.,9.,0.));
#987=CARTESIAN_POINT('',(108.5,9.,0.));
#988=CARTESIAN_POINT('',(-3.99999999999999,8.99999999999997,0.));
#989=CARTESIAN_POINT('',(-16.5,8.99999999999997,0.));
#990=UNCERTAINTY_MEASURE_WITH_UNIT(LENGTH_MEASURE(0.01),#994,
'DISTANCE_ACCURACY_VALUE',
'Maximum model space distance between geometric entities at asserted c
onnectivities');
#991=UNCERTAINTY_MEASURE_WITH_UNIT(LENGTH_MEASURE(0.01),#994,
'DISTANCE_ACCURACY_VALUE',
'Maximum model space distance between geometric entities at asserted c
onnectivities');
#992=(
GEOMETRIC_REPRESENTATION_CONTEXT(3)
GLOBAL_UNCERTAINTY_ASSIGNED_CONTEXT((#990))
GLOBAL_UNIT_ASSIGNED_CONTEXT((#994,#996,#997))
REPRESENTATION_CONTEXT('','3D')
);
#993=(
GEOMETRIC_REPRESENTATION_CONTEXT(3)
GLOBAL_UNCERTAINTY_ASSIGNED_CONTEXT((#991))
GLOBAL_UNIT_ASSIGNED_CONTEXT((#994,#996,#997))
REPRESENTATION_CONTEXT('','3D')
);
#994=(
LENGTH_UNIT()
NAMED_UNIT(*)
SI_UNIT(.MILLI.,.METRE.)
);
#995=(
LENGTH_UNIT()
NAMED_UNIT(*)
SI_UNIT(.CENTI.,.METRE.)
);
#996=(
NAMED_UNIT(*)
PLANE_ANGLE_UNIT()
SI_UNIT($,.RADIAN.)
);
#997=(
NAMED_UNIT(*)
SI_UNIT($,.STERADIAN.)
SOLID_ANGLE_UNIT()
);
#998=SHAPE_DEFINITION_REPRESENTATION(#999,#1000);
#999=PRODUCT_DEFINITION_SHAPE('',$,#1002);
#1000=SHAPE_REPRESENTATION('',(#583),#992);
#1001=PRODUCT_DEFINITION_CONTEXT('part definition',#1006,'design');
#1002=PRODUCT_DEFINITION('camera_holder','camera_holder',#1003,#1001);
#1003=PRODUCT_DEFINITION_FORMATION('',$,#1008);
#1004=PRODUCT_RELATED_PRODUCT_CATEGORY('camera_holder','camera_holder',
(#1008));
#1005=APPLICATION_PROTOCOL_DEFINITION('international standard',
'automotive_design',2009,#1006);
#1006=APPLICATION_CONTEXT(
'Core Data for Automotive Mechanical Design Process');
#1007=PRODUCT_CONTEXT('part definition',#1006,'mechanical');
#1008=PRODUCT('camera_holder','camera_holder',$,(#1007));
#1009=PRESENTATION_STYLE_ASSIGNMENT((#1012));
#1010=PRESENTATION_STYLE_ASSIGNMENT((#1013));
#1011=PRESENTATION_STYLE_ASSIGNMENT((#1014));
#1012=SURFACE_STYLE_USAGE(.BOTH.,#1017);
#1013=SURFACE_STYLE_USAGE(.BOTH.,#1018);
#1014=SURFACE_STYLE_USAGE(.BOTH.,#1019);
#1015=SURFACE_STYLE_RENDERING_WITH_PROPERTIES($,#1029,(#1016));
#1016=SURFACE_STYLE_TRANSPARENT(0.);
#1017=SURFACE_SIDE_STYLE('',(#1020,#1015));
#1018=SURFACE_SIDE_STYLE('',(#1021));
#1019=SURFACE_SIDE_STYLE('',(#1022));
#1020=SURFACE_STYLE_FILL_AREA(#1023);
#1021=SURFACE_STYLE_FILL_AREA(#1024);
#1022=SURFACE_STYLE_FILL_AREA(#1025);
#1023=FILL_AREA_STYLE('',(#1026));
#1024=FILL_AREA_STYLE('',(#1027));
#1025=FILL_AREA_STYLE('',(#1028));
#1026=FILL_AREA_STYLE_COLOUR('',#1029);
#1027=FILL_AREA_STYLE_COLOUR('',#1030);
#1028=FILL_AREA_STYLE_COLOUR('',#1031);
#1029=COLOUR_RGB('',0.749019607843137,0.749019607843137,0.749019607843137);
#1030=COLOUR_RGB('',0.,0.,0.);
#1031=COLOUR_RGB('',1.,1.,0.);
ENDSEC;
END-ISO-10303-21;
